<svg width="81" height="102" viewBox="0 0 81 102" fill="none" xmlns="http://www.w3.org/2000/svg">
<path d="M79.3146 19.165C78.0387 15.0802 75.9072 11.4391 72.9806 8.34107C70.3952 5.6061 67.1324 3.24431 63.2863 1.32126C61.6406 0.495892 60.0252 0.274001 58.8468 0.112626L58.6334 0.0840495C58.2501 0.0285768 57.8551 0 57.4617 0C54.2006 0 51.3211 1.9449 50.1242 4.95388C49.4283 6.70379 49.2988 8.41672 49.2652 9.71612C49.2652 9.73125 49.2652 9.74638 49.2652 9.76151C46.7471 9.18493 44.1836 8.57809 41.7848 7.84182C38.8027 6.924 35.945 6.47854 33.0487 6.47854C29.6951 6.47854 26.471 7.07697 23.1914 8.30745C19.8126 9.5766 16.6439 11.3568 13.7745 13.5992C10.9655 15.7929 8.49952 18.3833 6.44704 21.2981C4.37774 24.2332 2.77407 27.4304 1.67975 30.8025C0.546762 34.2922 -0.0180512 37.8979 0.000439684 41.5154C0.0189306 45.3699 0.543399 49.2362 1.60242 53.3344C2.43451 56.5535 3.60784 59.9323 5.18125 63.6406C3.27333 68.9626 4.37942 74.4645 8.30117 79.1477C11.9254 83.4712 15.8438 84.3773 18.4913 84.3773C18.5687 84.3773 18.6443 84.3773 18.7216 84.3756C18.8074 84.4882 18.8931 84.5992 18.9788 84.7101C19.1536 84.9387 19.3335 85.1758 19.51 85.4111C20.1723 86.2886 20.922 87.2837 21.8315 88.2486C22.5442 89.0034 23.2872 89.6522 23.8806 90.17L24.2185 90.4658C25.3077 91.4274 26.4424 92.3569 27.5905 93.2294C28.937 94.2531 30.2751 95.023 31.5291 95.7223L31.5728 95.7458C33.9598 97.0755 36.2476 98.1261 38.5657 98.9582C41.1443 99.8827 43.76 100.518 46.342 100.846C47.717 101.021 49.1173 101.113 50.5226 101.12C50.6066 101.12 50.6924 101.122 50.7764 101.123L51.0672 101.128C51.237 101.132 51.4118 101.133 51.585 101.133C51.9867 101.133 52.3381 101.122 52.6995 101.095C53.4963 101.036 54.4443 100.945 55.426 100.72C56.006 100.589 56.5641 100.419 57.0868 100.217C57.107 100.211 57.1978 100.185 57.1978 100.185C57.3541 100.14 57.5659 100.076 57.8113 99.992L57.9626 99.9382C58.3694 99.792 58.7762 99.6289 59.1612 99.4541C60.6858 98.7716 61.9483 97.9496 63.088 97.1612C63.6864 96.7477 64.3319 96.2837 65.0009 95.6971C65.4212 95.3272 65.791 94.9608 66.1356 94.5742C66.3609 94.3203 66.534 94.09 66.6584 93.9186C67.5493 93.0109 68.3797 92.0292 69.1295 90.997C70.7163 88.8134 72.0208 86.3726 73.0075 83.7402C73.5841 82.1987 74.0632 80.5648 74.4279 78.8821C77.1764 66.2142 75.4012 54.7145 73.5219 42.5408L73.4916 42.3525C73.453 42.1071 73.4244 41.8987 73.4008 41.7222C74.2447 41.112 75.3508 40.2832 76.3476 38.9956C78.6523 36.0203 80.0256 32.67 80.4274 29.0391C80.7703 25.9444 80.3954 22.6228 79.3162 19.1666L79.3146 19.165Z" fill="white"/>
<path d="M51.9864 99.5634C51.825 99.5634 51.6619 99.5601 51.5039 99.5584L51.2265 99.5534C51.1122 99.5517 50.9996 99.5483 50.8853 99.5483C49.5792 99.5416 48.268 99.4559 46.9804 99.2928C44.5497 98.9835 42.0803 98.3817 39.6395 97.5076C37.4122 96.7074 35.2033 95.6921 32.8903 94.4028L32.86 94.386C31.6665 93.7203 30.3991 92.9925 29.177 92.0646C28.0541 91.2106 26.943 90.3012 25.8755 89.3582L25.5175 89.0438C24.9258 88.5278 24.25 87.936 23.623 87.2737C22.8128 86.4131 22.1252 85.502 21.4613 84.6211C21.273 84.3707 21.0814 84.1185 20.8948 83.8748C20.5502 83.4293 20.2005 82.9721 19.8525 82.5148C19.8525 82.5148 19.5079 82.0644 19.4878 82.0375C18.8961 82.1551 18.3044 82.2156 17.7227 82.2156C14.776 82.2156 12.0914 80.7986 9.74812 78.0014C6.4164 74.0242 5.51539 69.583 7.13754 65.1519C7.25017 64.7955 7.42499 64.4762 7.65865 64.1988C7.61158 64.0878 7.55106 63.9534 7.4771 63.7937L7.45021 63.7365C7.37456 63.5718 7.29555 63.4003 7.21991 63.2221C5.56245 59.3609 4.34205 55.8829 3.49147 52.5916C2.46607 48.6211 1.95841 44.8893 1.93992 41.1793C1.92143 37.7904 2.45094 34.4133 3.51333 31.1421C4.54209 27.9718 6.05162 24.9645 7.99989 22.2009C9.93471 19.4525 12.2595 17.01 14.9071 14.9424C17.6101 12.8294 20.5922 11.1535 23.7709 9.95997C26.7816 8.83035 29.7334 8.28066 32.7962 8.28066C35.4538 8.28066 38.0896 8.69419 40.8532 9.54477C43.8151 10.4542 46.9434 11.1652 49.9675 11.8544L50.0919 11.883C50.3978 11.9519 50.7643 11.9839 51.2467 11.9839C51.6149 11.9839 52.0116 11.9654 52.3965 11.9469H52.4385C53.1479 11.9099 53.2387 11.8595 53.2336 11.0745C53.2336 10.8727 53.1832 10.5752 53.1294 10.2592L53.1244 10.2273C53.0336 9.68429 52.9311 9.06737 52.9496 8.35967C52.9781 7.2956 53.0773 5.90374 53.6018 4.58585C54.3397 2.73003 56.0543 1.5752 58.0749 1.5752C58.3254 1.5752 58.5742 1.59369 58.8162 1.62899L59.0499 1.66093C60.0954 1.80381 61.3898 1.982 62.5968 2.58715C66.2294 4.4043 69.2921 6.6148 71.6976 9.15982C74.3738 11.9923 76.3237 15.324 77.4903 19.0592C78.4687 22.1909 78.8116 25.1696 78.509 27.9096C78.161 31.0446 76.9709 33.9443 74.9688 36.5297C74.1754 37.5551 73.2643 38.2124 72.4591 38.7923C71.9868 39.1336 71.5413 39.4563 71.2572 39.7706C70.9748 40.1758 71.2455 41.9307 71.348 42.5897L71.3783 42.7746C73.2761 55.066 75.068 66.6715 72.3532 79.1764C72.0103 80.7599 71.5615 82.2963 71.0202 83.7403C70.1057 86.1811 68.8988 88.4403 67.4346 90.4558C66.7051 91.4611 65.8915 92.4142 65.0174 93.285C65.0023 93.3068 64.9585 93.369 64.9585 93.369C64.8577 93.5102 64.7215 93.7035 64.5383 93.9103C64.2778 94.2045 63.9903 94.4869 63.6591 94.7794C63.1011 95.2685 62.5262 95.6804 61.9882 96.0536C60.9427 96.7764 59.7929 97.5278 58.4632 98.1228C58.1388 98.2691 57.8009 98.4053 57.4613 98.528L57.3403 98.5717C57.1588 98.6339 56.994 98.6826 56.8495 98.7263L56.8007 98.7414C56.7099 98.7683 56.599 98.8003 56.5553 98.8188C56.1468 98.9818 55.698 99.1197 55.2273 99.2256C54.4255 99.4105 53.6354 99.4861 52.9025 99.5399C52.615 99.5601 52.3276 99.5702 51.9964 99.5702L51.9864 99.5634ZM20.9771 75.4513C21.705 75.4513 22.7203 75.7589 23.4179 77.2298C24.561 79.642 26.1714 81.8694 28.2003 83.8529C33.477 89.0119 40.1673 92.2982 48.0881 93.6195C49.011 93.7724 49.9187 93.8514 50.7895 93.8514C55.0004 93.8514 58.5674 92.1049 61.6957 88.5093C63.4171 86.5291 64.7501 84.1874 65.7721 81.3466C67.6145 76.2246 68.0717 70.8689 68.2314 63.3617C68.1928 62.8624 68.1524 62.2791 68.107 61.6336C67.9843 59.8585 67.833 57.648 67.5725 55.4526C66.8396 49.2649 65.241 43.2116 62.817 37.4559C62.738 37.4559 62.6573 37.4559 62.5783 37.4559C58.3674 37.4559 54.4994 36.1229 50.9475 34.684C48.8429 33.83 46.7837 33.0097 44.7161 32.3407C43.4419 31.9271 42.3845 31.6531 41.3675 31.6531C40.9086 31.6531 40.485 31.7103 40.0749 31.828C34.8571 33.3341 30.1537 35.7211 26.0974 38.9234C24.3139 40.3321 23.744 41.8399 24.1945 43.9647C25.0418 47.9587 25.7058 53.2354 23.2969 58.6263C23.1742 58.9037 22.9977 59.5845 23.2112 61.0184C23.354 61.9866 23.6297 62.9616 23.9205 63.992C24.0668 64.5081 24.2164 65.0426 24.3526 65.5839C24.835 67.5137 24.0382 69.346 22.4614 69.9427C22.0546 70.0974 21.6428 70.1764 21.2377 70.1764C19.9433 70.1764 19.0591 69.4183 18.4321 68.7576C17.6286 67.9087 16.7663 67.0313 15.8367 66.4496C15.2937 66.1084 14.7474 65.9285 14.2565 65.9285C13.2379 65.9285 12.4629 66.732 12.1805 68.0768C11.5938 70.869 13.3471 74.4024 16.0888 75.9556C16.7225 76.3154 17.3075 76.4969 17.827 76.4969C18.306 76.4969 18.77 76.3456 19.244 76.0346C19.8458 75.6413 20.4123 75.4513 20.9755 75.4513H20.9771Z" fill="white"/>
<path d="M75.8813 19.5569C74.7903 16.0654 72.9715 12.9556 70.4719 10.3097C68.2042 7.91095 65.2995 5.81476 61.84 4.08502C60.8802 3.60426 59.7841 3.45465 58.8176 3.32185L58.5688 3.28823C58.4041 3.2647 58.236 3.25293 58.0729 3.25293C56.7533 3.25293 55.6388 4.00097 55.1614 5.20456C54.7345 6.27703 54.6521 7.47557 54.6269 8.40012C54.6134 8.95317 54.6992 9.46755 54.7832 9.96512C54.8488 10.3551 54.911 10.7232 54.9126 11.0611C54.9244 12.7287 54.1629 13.5423 52.5172 13.6213C52.1003 13.6414 51.6683 13.6633 51.2447 13.6633C50.6295 13.6633 50.147 13.6179 49.7234 13.5221L49.6142 13.4986C46.5514 12.8026 43.3844 12.0832 40.357 11.1519C37.7531 10.3517 35.2804 9.96344 32.7942 9.96344C29.9382 9.96344 27.1797 10.4778 24.3607 11.5352C21.3416 12.6682 18.5091 14.2617 15.9406 16.2688C13.4225 18.2339 11.2136 20.557 9.37296 23.1693C7.52387 25.795 6.0883 28.651 5.11165 31.6617C4.10473 34.7597 3.60212 37.9603 3.62061 41.1727C3.63742 44.7414 4.12659 48.3388 5.11837 52.1714C5.9471 55.3771 7.1406 58.7777 8.76612 62.565C8.84344 62.7465 8.92413 62.9197 9.00146 63.0878C9.56795 64.3132 9.63183 64.6275 9.03676 65.184C8.83 65.3773 8.75771 65.5975 8.72914 65.6899C7.28517 69.5932 8.06178 73.372 11.0338 76.9223C13.0442 79.3194 15.2934 80.5348 17.7207 80.5348C18.5175 80.5348 19.3278 80.3969 20.1414 80.1296C20.4893 80.5818 20.8373 81.0374 21.1769 81.4812C21.5282 81.9401 21.8795 82.4007 22.2308 82.8579C22.4191 83.105 22.6141 83.3605 22.8007 83.6093C23.4395 84.4565 24.0984 85.3306 24.8448 86.1224C25.4096 86.7208 26.0299 87.2621 26.6283 87.7865C26.7477 87.8924 26.8687 87.9967 26.9864 88.1009C28.0185 89.012 29.0977 89.8962 30.192 90.7283C31.3216 91.5873 32.5336 92.2832 33.6767 92.9203L33.6817 92.9236C35.9276 94.1777 38.0607 95.1594 40.204 95.9276C42.5338 96.763 44.8822 97.3329 47.1902 97.6271C48.4139 97.7834 49.6545 97.8641 50.8833 97.8691C51.048 97.8691 51.2145 97.8742 51.3792 97.8758C51.5759 97.8792 51.781 97.8826 51.9844 97.8826C52.2819 97.8826 52.5307 97.8742 52.7677 97.8574C53.4283 97.8086 54.1377 97.743 54.8437 97.58C55.227 97.4926 55.5918 97.3816 55.928 97.2472C56.0473 97.2001 56.1902 97.1581 56.3398 97.1143C56.4793 97.0723 56.6256 97.0303 56.7785 96.9765C56.8122 96.9631 56.8475 96.953 56.8811 96.9395C57.1786 96.8319 57.4762 96.7126 57.7653 96.5832C58.9672 96.0452 60.0397 95.3443 61.0214 94.6668C61.5173 94.3222 62.0451 93.9457 62.5393 93.5137C62.815 93.2716 63.0554 93.0363 63.2722 92.7908C63.3949 92.653 63.4941 92.5135 63.5798 92.3908C63.6487 92.2933 63.7177 92.1941 63.7681 92.1437C64.5968 91.325 65.3718 90.424 66.0677 89.4625C67.4461 87.5663 68.5791 85.4382 69.4398 83.1453C69.9525 81.7787 70.3777 80.3213 70.7039 78.8151C73.3514 66.6145 71.583 55.1602 69.7104 43.0319L69.6986 42.9596L69.6801 42.8453C69.4667 41.4601 69.1725 39.5623 70.0012 38.6411C70.4013 38.1973 70.919 37.8225 71.4687 37.4258C72.2168 36.8862 72.9883 36.3281 73.6321 35.4977C75.4426 33.1611 76.5184 30.5455 76.8311 27.7231C77.1084 25.2167 76.789 22.4683 75.8796 19.5585L75.8813 19.5569ZM69.9138 63.313C69.7642 70.4572 69.3708 76.3071 67.3536 81.9165C66.34 84.7339 64.9398 87.3411 62.9646 89.6121C59.6127 93.4649 55.5632 95.5309 50.7909 95.5309C49.8277 95.5309 48.8359 95.4468 47.8138 95.277C39.8829 93.9541 32.8362 90.735 27.0267 85.0549C24.9103 82.9873 23.1688 80.6255 21.8997 77.9494C21.6324 77.3863 21.3399 77.1308 20.9768 77.1308C20.7415 77.1308 20.4742 77.2383 20.1666 77.4384C19.3883 77.9477 18.6083 78.1746 17.8283 78.1746C16.9693 78.1746 16.112 77.8973 15.2598 77.4148C11.8793 75.4985 9.80161 71.2237 10.5345 67.729C10.9951 65.5269 12.4727 64.2426 14.2562 64.2426C15.0429 64.2426 15.8868 64.4914 16.7306 65.0209C17.8182 65.7034 18.7613 66.6565 19.6522 67.5979C20.1447 68.1173 20.6305 68.4921 21.2374 68.4921C21.4324 68.4921 21.6408 68.4535 21.8661 68.3677C22.6511 68.0702 22.9923 67.0751 22.7217 65.9891C22.3283 64.4124 21.7871 62.8608 21.55 61.2639C21.3887 60.1796 21.3366 58.8971 21.7635 57.9389C23.7622 53.4658 23.5286 48.9153 22.5519 44.3111C21.9585 41.5106 22.8209 39.369 25.0566 37.6023C29.4221 34.1546 34.2953 31.744 39.6123 30.2093C40.2006 30.0412 40.7873 29.9689 41.3672 29.9689C42.6834 29.9689 43.9778 30.332 45.2335 30.7388C47.3818 31.4347 49.4847 32.2752 51.5776 33.1241C55.1228 34.5614 58.705 35.7734 62.5763 35.7734C62.8083 35.7734 63.0402 35.7683 63.2722 35.7599C63.2772 35.7599 63.2823 35.7599 63.2857 35.7599C63.6017 35.7599 64.0841 36.1449 64.2186 36.4626C66.7905 42.4839 68.4681 48.7556 69.2364 55.2543C69.6011 58.3423 69.7575 61.4538 69.9071 63.3113L69.9138 63.313Z" fill="#EC2227"/>
<path d="M69.2432 55.2561C68.4734 48.7591 66.7974 42.4857 64.2255 36.4644C64.0893 36.1467 63.6069 35.7617 63.2925 35.7617C63.2875 35.7617 63.2841 35.7617 63.2791 35.7617C63.0471 35.7701 62.8135 35.7752 62.5832 35.7752C58.7118 35.7752 55.1297 34.5632 51.5844 33.1259C49.4899 32.277 47.3887 31.4365 45.2404 30.7406C43.9847 30.3338 42.6903 29.9707 41.3741 29.9707C40.7925 29.9707 40.2058 30.0413 39.6192 30.2111C34.3022 31.7458 29.429 34.1564 25.0635 37.6041C22.8261 39.3708 21.9654 41.5124 22.5588 44.3129C23.5354 48.9155 23.7691 53.4659 21.7704 57.9407C21.3434 58.8989 21.3956 60.1798 21.5569 61.2657C21.7939 62.8626 22.3352 64.4142 22.7286 65.991C22.9992 67.0769 22.658 68.0737 21.873 68.3695C21.6477 68.4553 21.4393 68.4939 21.2443 68.4939C20.6357 68.4939 20.1516 68.1191 19.6591 67.5997C18.7682 66.6583 17.8251 65.7052 16.7375 65.0227C15.8937 64.4932 15.0498 64.2444 14.2631 64.2444C12.4796 64.2444 11.0037 65.527 10.5414 67.7308C9.80849 71.2256 11.8862 75.502 15.2667 77.4166C16.1172 77.8991 16.9745 78.1764 17.8352 78.1764C18.6152 78.1764 19.3952 77.9495 20.1735 77.4402C20.4811 77.2384 20.7484 77.1325 20.9837 77.1325C21.3468 77.1325 21.6393 77.3881 21.9066 77.9512C23.1757 80.6273 24.9172 82.9891 27.0336 85.0567C32.8431 90.7368 39.8898 93.9559 47.8207 95.2788C48.8427 95.4486 49.8345 95.5327 50.7977 95.5327C55.5701 95.5327 59.6196 93.465 62.9715 89.6139C64.9466 87.3412 66.3469 84.7357 67.3605 81.9183C69.3794 76.3089 69.7711 70.459 69.9207 63.3148C69.7711 61.4556 69.6147 58.3441 69.25 55.2578L69.2432 55.2561ZM18.3849 75.2969C18.2756 75.3087 18.1697 75.3154 18.0638 75.3154C17.1981 75.3154 16.4787 74.9187 15.9223 74.137C15.0347 72.8864 14.991 71.7551 15.8012 70.1833C15.5659 70.027 15.386 69.9598 15.2146 69.9598C14.8498 69.9598 14.3589 70.2422 13.394 71.0003L12.7502 71.5063L12.7032 70.6876C12.6426 69.6757 12.8713 68.8654 13.3638 68.3443C13.7655 67.9157 14.3404 67.6904 15.0212 67.6904C15.186 67.6904 15.3574 67.7039 15.5339 67.7291C16.4602 67.8619 17.3259 68.3662 17.8907 68.7646C18.3967 69.1226 18.8505 69.4857 18.8606 69.9816C18.8673 70.4792 18.4421 70.844 17.884 71.2676C17.5629 71.5113 17.3713 71.8845 17.3444 72.3165C17.3091 72.8746 17.5427 73.4445 17.9848 73.8798C18.0369 73.9319 18.0941 73.9824 18.1563 74.0362C18.3361 74.1959 18.5395 74.3791 18.7043 74.6464L19.059 75.2229L18.3849 75.2952V75.2969ZM57.6679 41.4989C57.8024 41.2602 58.1554 40.882 58.5152 40.7912C58.6799 40.7492 58.8564 40.729 59.0447 40.729C61.1056 40.729 64.4995 43.3144 64.8155 45.6358L65.0458 47.3252L64.0456 45.9435C62.7546 44.1616 61.0081 43.7447 59.1607 43.2993C58.9741 43.2539 58.7875 43.2102 58.6009 43.1631C58.0798 43.0337 57.7083 42.3915 57.5856 41.9948C57.5385 41.8402 57.5654 41.6738 57.6663 41.4973L57.6679 41.4989ZM64.5869 56.142C64.4272 57.0464 63.4287 58.0264 62.5311 58.1559C62.4487 58.1693 62.3629 58.1743 62.2755 58.1743C61.4653 58.1743 60.3374 57.628 59.9524 56.8161C59.5204 55.9033 59.2951 55.0124 59.08 54.1484C59.0262 53.9349 58.9724 53.7197 58.9136 53.5012C58.8228 53.1566 58.7202 52.7666 58.6883 52.3396C58.6833 52.2942 58.6833 52.2489 58.6816 52.2035C58.6496 51.3563 59.0312 50.3947 59.6515 49.7526C60.1121 49.2752 60.682 49.0096 61.2518 49.0096C61.7208 49.0096 62.41 49.1844 63.0152 50.0098C64.4121 51.9244 64.9567 54.0442 64.5869 56.1404V56.142ZM56.1416 61.8977C55.4558 60.5193 54.6808 59.1493 53.9328 57.8247C53.5209 57.0951 53.0957 56.3421 52.6872 55.594C51.7593 53.8895 51.2651 52.0118 51.2197 50.0148L51.181 48.2868L52.0215 49.7963L52.625 50.8805C53.0839 51.7042 53.5428 52.5279 54.0017 53.3516C54.4169 54.0979 54.8439 54.8544 55.2574 55.5873C56.1937 57.2464 57.1636 58.961 58.0714 60.6773C59.4095 63.2055 58.922 65.7405 56.7989 67.292C56.0122 67.8669 55.1381 68.1594 54.2018 68.1594C53.7512 68.1594 53.2806 68.0905 52.8065 67.956C52.5695 67.8888 52.3711 67.7661 52.1409 67.6232C52.0299 67.5543 51.9055 67.4769 51.7593 67.3963L50.7927 66.8567L51.8702 66.6062C52.2131 66.5255 52.5241 66.4616 52.8267 66.3994C53.4134 66.2767 53.9193 66.1708 54.3967 66.0061C55.4003 65.6598 56.0878 65.0916 56.387 64.3604C56.6762 63.6544 56.5921 62.8021 56.1433 61.8977H56.1416ZM31.9454 48.7154L31.2882 49.9442L31.1436 48.5591C30.994 47.1302 31.4916 45.7602 32.6246 44.4861C33.6096 43.3766 34.7897 42.4823 36.1193 41.5107C36.4455 41.2703 36.8825 41.2216 37.1901 41.2216C37.4709 41.2216 37.7566 41.2636 37.9953 41.3426C38.4357 41.4872 38.7333 41.9141 38.7501 42.4336C38.7686 42.9614 38.4946 43.4186 38.0542 43.5951C35.1259 44.7802 33.1877 46.4091 31.9471 48.7171L31.9454 48.7154ZM36.7934 57.8987C36.3816 56.485 36.0891 55.0141 35.9277 53.5264C35.8201 52.5464 36.2505 51.6134 37.0203 51.1545C37.3717 50.9461 37.7381 50.8402 38.1113 50.8385C38.782 50.8385 39.3065 51.1663 39.7721 51.5193C41.0816 52.5111 41.9524 53.9954 42.1541 55.5923C42.2045 55.9807 42.2012 56.4228 42.1457 56.8733C42.0566 57.5877 41.7607 58.8871 40.7706 59.5511C40.3353 59.8419 39.8478 59.9982 39.3586 59.9982C38.2071 59.9982 37.1515 59.1342 36.7917 57.9003L36.7934 57.8987ZM59.1556 82.9992C58.6396 84.9407 56.2189 85.8233 54.1849 85.8233C52.5224 85.8233 51.065 85.2938 50.1875 84.3709L49.4361 83.5808L50.5237 83.6497C51.1474 83.6884 51.7189 83.7086 52.2669 83.7086C54.6859 83.7086 56.6896 83.3236 58.569 82.5L59.3826 82.1419L59.1556 83.0009V82.9992ZM66.1116 73.3991C66.0326 74.7859 65.4997 76.5845 64.2356 77.4738L63.4186 78.047L63.5649 77.0603L63.6102 76.751C60.2516 79.2086 56.814 80.4054 53.1293 80.4054C49.4445 80.4054 45.548 79.18 41.2514 76.6636L41.3405 77.2048L41.4884 78.1092L41.6448 79.0556L40.8362 78.5395C40.7269 78.4689 40.6311 78.4151 40.5471 78.3681C40.3706 78.2672 40.2159 78.1798 40.0915 78.0319C39.2157 76.9964 38.7988 75.507 38.9417 73.9403C39.0846 72.4022 39.7553 71.039 40.7841 70.1985C41.1052 69.9362 41.5288 69.8656 41.9036 69.8034C42.0566 69.7799 42.2012 69.7547 42.3272 69.7211L42.8214 69.5899L42.8635 70.0993L42.9307 70.8944L42.9643 71.2962C45.6489 72.3014 48.5704 72.8124 51.6534 72.8124C52.5191 72.8124 53.4016 72.7704 54.2791 72.6897C56.2492 72.5048 58.2428 72.0677 60.1693 71.6441C60.9442 71.4743 61.746 71.2978 62.5395 71.1381C63.032 71.039 63.1698 70.9532 63.2068 70.5397C63.2539 69.9682 63.6556 69.5698 64.1801 69.5698C64.4726 69.5698 64.7735 69.6959 65.0307 69.9245C65.3753 70.2321 65.6459 70.6624 65.8308 71.1835C65.888 71.3415 65.9367 71.508 65.9771 71.6811C66.0981 72.1988 66.1469 72.7822 66.1116 73.3974V73.3991Z" fill="white"/>
<path d="M61.2529 76.1945C61.4597 76.0533 61.6648 75.9054 61.8682 75.749C61.6648 75.9037 61.4597 76.0516 61.2529 76.1945Z" fill="#EC2227"/>
<path d="M61.2529 76.1945C61.4597 76.0533 61.6648 75.9054 61.8682 75.749C61.6648 75.9037 61.4597 76.0516 61.2529 76.1945ZM61.2529 76.1945C61.4597 76.0533 61.6648 75.9054 61.8682 75.749C61.6648 75.9037 61.4597 76.0516 61.2529 76.1945ZM61.2529 76.1945C61.4597 76.0533 61.6648 75.9054 61.8682 75.749C61.6648 75.9037 61.4597 76.0516 61.2529 76.1945ZM61.2529 76.1945C61.4597 76.0533 61.6648 75.9054 61.8682 75.749C61.6648 75.9037 61.4597 76.0516 61.2529 76.1945ZM61.2529 76.1945C61.4597 76.0533 61.6648 75.9054 61.8682 75.749C61.6648 75.9037 61.4597 76.0516 61.2529 76.1945Z" fill="#EC2227"/>
<path d="M65.9775 71.6807C65.9371 71.5058 65.8884 71.3411 65.8312 71.1831C65.6463 70.662 65.3757 70.2317 65.0311 69.924C64.7739 69.6954 64.473 69.5693 64.1805 69.5693C63.656 69.5693 63.2543 69.9677 63.2072 70.5393C63.1719 70.9528 63.0324 71.0385 62.5399 71.1377C61.7481 71.2957 60.9463 71.4739 60.1697 71.6437C58.2433 72.0673 56.2479 72.506 54.2795 72.6893C53.402 72.7699 52.5178 72.812 51.6538 72.812C48.5708 72.812 45.6493 72.3009 42.9647 71.2957L42.9311 70.894L42.8639 70.0989L42.8219 69.5895L42.3276 69.7206C42.1999 69.7542 42.057 69.7795 41.904 69.803C41.5309 69.8652 41.1056 69.9358 40.7845 70.198C39.7557 71.0368 39.085 72.4018 38.9421 73.9399C38.7976 75.5049 39.2161 76.996 40.0919 78.0314C40.2163 78.1794 40.371 78.2668 40.5475 78.3676C40.6315 78.4147 40.7273 78.4685 40.8366 78.5391L41.6452 79.0552L41.4888 78.1088L41.3409 77.2044L41.2518 76.6631C45.5501 79.1796 49.4433 80.405 53.1297 80.405C56.8161 80.405 60.252 79.2081 63.6106 76.7505L63.5653 77.0598L63.419 78.0466L64.236 77.4734C65.4984 76.5841 66.033 74.7855 66.112 73.3986C66.1473 72.7834 66.0985 72.2018 65.9775 71.6823V71.6807ZM61.8675 75.7487C61.6641 75.905 61.459 76.0529 61.2522 76.1941C60.837 76.4782 60.4151 76.7371 59.9864 76.9691C59.7713 77.085 59.5544 77.1943 59.3359 77.2985C57.4801 78.1777 55.4932 78.5996 53.3852 78.5996C52.0185 78.5996 50.5998 78.4231 49.1356 78.0785C46.2006 77.3893 43.4623 76.3521 41.2854 74.1652C40.6584 73.5365 40.6635 73.5314 41.1257 72.5615C44.9298 73.9399 48.7373 74.5955 52.5934 74.5955C56.4496 74.5955 60.4386 73.9265 64.4764 72.6556C64.3015 73.0675 64.2259 73.5701 63.9368 73.876C63.461 74.3803 62.9736 74.8426 62.4743 75.2628C62.2743 75.4309 62.0725 75.5923 61.8691 75.7487H61.8675Z" fill="#EC2227"/>
<path d="M56.7991 67.2895C56.0124 67.8644 55.1383 68.1568 54.202 68.1568C53.7515 68.1568 53.2808 68.0879 52.8068 67.9534C52.5698 67.8862 52.3714 67.7635 52.1411 67.6206C52.0302 67.5517 51.9058 67.4744 51.7595 67.3937L50.793 66.8541L51.8705 66.6036C52.2134 66.5229 52.5244 66.459 52.827 66.3968C53.4136 66.2741 53.9196 66.1682 54.397 66.0035C55.4006 65.6572 56.0881 65.089 56.3873 64.3578C56.6764 63.6518 56.5924 62.7995 56.1436 61.8952C55.4577 60.5167 54.6828 59.1467 53.9347 57.8221C53.5229 57.0926 53.0976 56.3395 52.6891 55.5914C51.7612 53.8869 51.267 52.0093 51.2216 50.0122L51.183 48.2842L52.0235 49.7937L52.6269 50.878C53.0858 51.7016 53.5447 52.5253 54.0037 53.349C54.4189 54.0954 54.8458 54.8518 55.2594 55.5847C56.1957 57.2439 57.1656 58.9585 58.0733 60.6748C59.4114 63.203 58.9239 65.7379 56.8008 67.2895H56.7991Z" fill="#EC2227"/>
<path d="M42.1471 56.871C42.058 57.5854 41.7622 58.8848 40.7721 59.5488C40.3367 59.8396 39.8492 59.9959 39.3601 59.9959C38.2086 59.9959 37.1529 59.1319 36.7932 57.898C36.3813 56.4843 36.0888 55.0135 35.9275 53.5258C35.8199 52.5458 36.2502 51.6128 37.0201 51.1539C37.3714 50.9455 37.7379 50.8396 38.1111 50.8379C38.7818 50.8379 39.3063 51.1657 39.7719 51.5187C41.0814 52.5105 41.9521 53.9948 42.1539 55.5917C42.2043 55.98 42.2009 56.4221 42.1455 56.8726L42.1471 56.871Z" fill="#EC2227"/>
<path d="M64.5878 56.1393C64.4281 57.0436 63.4296 58.0237 62.532 58.1531C62.4496 58.1665 62.3639 58.1716 62.2765 58.1716C61.4662 58.1716 60.3383 57.6253 59.9534 56.8134C59.5213 55.9006 59.2961 55.0097 59.0809 54.1456C59.0271 53.9321 58.9733 53.717 58.9145 53.4984C58.8237 53.1538 58.7212 52.7638 58.6893 52.3369C58.6842 52.2915 58.6842 52.2461 58.6825 52.2007C58.6506 51.3535 59.0322 50.392 59.6525 49.7498C60.113 49.2724 60.6829 49.0068 61.2528 49.0068C61.7218 49.0068 62.411 49.1817 63.0161 50.007C64.413 51.9217 64.9577 54.0414 64.5878 56.1376V56.1393Z" fill="#EC2227"/>
<path d="M19.0587 75.2227L18.3846 75.295C18.2754 75.3067 18.1695 75.3134 18.0636 75.3134C17.1979 75.3134 16.4784 74.9167 15.922 74.1351C15.0344 72.8844 14.9907 71.7531 15.801 70.1814C15.5656 70.025 15.3857 69.9578 15.2143 69.9578C14.8495 69.9578 14.3587 70.2402 13.3938 70.9983L12.75 71.5043L12.7029 70.6857C12.6424 69.6737 12.871 68.8635 13.3635 68.3424C13.7653 67.9137 14.3402 67.6885 15.021 67.6885C15.1857 67.6885 15.3572 67.7019 15.5337 67.7271C16.4599 67.8599 17.3256 68.3642 17.8904 68.7626C18.3964 69.1207 18.8503 69.4838 18.8604 69.9797C18.8671 70.4772 18.4418 70.842 17.8837 71.2656C17.5626 71.5094 17.371 71.8825 17.3441 72.3146C17.3088 72.8726 17.5425 73.4425 17.9846 73.8779C18.0367 73.93 18.0938 73.9804 18.156 74.0342C18.3359 74.1939 18.5393 74.3771 18.704 74.6444L19.0587 75.221V75.2227Z" fill="#EC2227"/>
<path d="M38.7489 42.4271C38.7674 42.9549 38.4934 43.4122 38.053 43.5887C35.1247 44.7738 33.1865 46.4026 31.946 48.7106L31.2887 49.9394L31.1441 48.5543C30.9945 47.1255 31.4921 45.7555 32.6251 44.4813C33.6101 43.3718 34.7902 42.4775 36.1199 41.5059C36.446 41.2655 36.883 41.2168 37.1906 41.2168C37.4714 41.2168 37.7571 41.2588 37.9958 41.3378C38.4363 41.4824 38.7338 41.9094 38.7506 42.4288L38.7489 42.4271Z" fill="#EC2227"/>
<path d="M59.3839 82.1377L59.157 82.9967C58.6409 84.9382 56.2203 85.8207 54.1863 85.8207C52.5238 85.8207 51.0664 85.2912 50.1889 84.3684L49.4375 83.5783L50.5251 83.6472C51.1487 83.6859 51.7203 83.7061 52.2683 83.7061C54.6872 83.7061 56.691 83.3211 58.5703 82.4974L59.3839 82.1394V82.1377Z" fill="#EC2227"/>
<path d="M65.0501 47.3244L64.0499 45.9427C62.7589 44.1608 61.0123 43.7439 59.1649 43.2985C58.9783 43.2531 58.7918 43.2094 58.6052 43.1623C58.0841 43.0329 57.7126 42.3907 57.5898 41.994C57.5428 41.8394 57.5697 41.673 57.6705 41.4965C57.805 41.2578 58.158 40.8795 58.5178 40.7888C58.6825 40.7467 58.859 40.7266 59.0473 40.7266C61.1082 40.7266 64.5021 43.3119 64.8181 45.6334L65.0484 47.3228L65.0501 47.3244Z" fill="#EC2227"/>
<path d="M64.4765 72.6557C64.3017 73.0675 64.2261 73.5701 63.9369 73.876C63.4612 74.3803 62.9737 74.8426 62.4745 75.2629C62.2744 75.431 62.0727 75.5923 61.8693 75.7487C61.6659 75.9033 61.4608 76.0513 61.2541 76.1941C60.8389 76.4782 60.4169 76.7371 59.9883 76.9691C59.7731 77.0851 59.5563 77.1943 59.3377 77.2986C57.4819 78.1777 55.495 78.5996 53.387 78.5996C52.0204 78.5996 50.6016 78.4231 49.1375 78.0785C46.2025 77.3893 43.4642 76.3522 41.2873 74.1652C40.6603 73.5365 40.6653 73.5315 41.1276 72.5615C44.9317 73.9399 48.7391 74.5955 52.5953 74.5955C56.4515 74.5955 60.4405 73.9265 64.4782 72.6557H64.4765Z" fill="white"/>
<path d="M61.8691 75.749C61.6657 75.9054 61.4607 76.0533 61.2539 76.1945C61.4607 76.0516 61.6657 75.9037 61.8691 75.749Z" fill="#EC2227"/>
<path d="M61.2539 76.1945C61.4607 76.0533 61.6657 75.9054 61.8691 75.749C61.6657 75.9037 61.4607 76.0516 61.2539 76.1945Z" fill="#EC2227"/>
</svg>
